<svg xmlns="http://www.w3.org/2000/svg" style="display:none">
  <!-- Facebook -->
  <symbol id="icon-facebook" viewBox="0 0 24 24">
    <rect width="24" height="24" fill="#828282"/>
    <!-- фон -->
    <path d="M15 8h-2c-0.55 0-1 .45-1 1v2h3l-0.5 3h-2.5v8h-3v-8H7v-3h2V9c0-1.66 1.34-3 3-3h3v2z" fill="#fff"/>
  </symbol>
  <!-- LinkedIn -->
  <symbol id="icon-linkedin" viewBox="0 0 24 24">
    <rect width="24" height="24" fill="#828282"/>
    <!-- фон -->
    <path d="M4.98 3.5C4.98 4.88 3.87 6 2.5 6S0 4.88 0 3.5 1.12 1 2.5 1s2.48 1.12 2.48 2.5zM.5 8h4V24h-4V8zm7.5 0h3.8v2.2h.05c.53-1 1.82-2.2 3.75-2.2 4 0 4.7 2.63 4.7 6V24h-4v-8.2c0-2-0.04-4.6-2.8-4.6-2.8 0-3.2 2.2-3.2 4.5V24h-4V8z" fill="#fff"/>
  </symbol>
  <!-- YouTube -->
  <symbol id="icon-youtube" viewBox="0 0 24 24">
    <rect width="24" height="24" fill="#828282"/>
    <!-- фон -->
    <path d="M9.5 15.5v-7l6 3.5-6 3.5z" fill="#fff"/>
    <!-- трикутник play -->
  </symbol>
  <!-- Instagram -->
  <symbol id="icon-instagram" viewBox="0 0 24 24">
    <rect width="24" height="24" fill="#fff"/>
    <!-- фон білий -->
    <path d="M7 2C4.24 2 2 4.24 2 7v10c0 2.76 2.24 5 5 5h10c2.76 0 5-2.24 5-5V7c0-2.76-2.24-5-5-5H7zm10 2c1.65 0 3 1.35 3 3v10c0 1.65-1.35 3-3 3H7c-1.65 0-3-1.35-3-3V7c0-1.65 1.35-3 3-3h10zm-5 3a5 5 0 100 10 5 5 0 000-10zm6.5-2.5a1.5 1.5 0 11-3 0 1.5 1.5 0 013 0z" fill="#828282"/>
  </symbol>
</svg>