<svg xmlns="http://www.w3.org/2000/svg" style="display:none">
  <!-- Facebook -->
  <symbol id="icon-facebook" viewBox="0 0 24 24">
    <!-- круглий фон -->
    <circle cx="12" cy="12" r="12" fill="#828282"/>
    <!-- білий логотип -->
    <path d="M15 8h-2c-0.55 0-1 .45-1 1v2h3l-0.5 3h-2.5v8h-3v-8H7v-3h2V9c0-1.66 1.34-3 3-3h3v2z" fill="#fff"/>
  </symbol>
  <!-- LinkedIn -->
  <symbol id="icon-linkedin" viewBox="0 0 24 24">
    <!-- квадратний фон -->
    <rect width="24" height="24" fill="#828282"/>
    <!-- білий логотип, трохи зсунений для центровки -->
    <g transform="translate(2,0)">
      <path d="M4.98 3.5C4.98 4.88 3.87 6 2.5 6S0 4.88 0 3.5 1.12 1 2.5 1s2.48 1.12 2.48 2.5zM.5 8h4V24h-4V8zm7.5 0h3.8v2.2h.05c.53-1 1.82-2.2 3.75-2.2 4 0 4.7 2.63 4.7 6V24h-4v-8.2c0-2-0.04-4.6-2.8-4.6-2.8 0-3.2 2.2-3.2 4.5V24h-4V8z" fill="#fff"/>
    </g>
  </symbol>
  <!-- YouTube -->
  <symbol id="icon-youtube" viewBox="0 0 24 24">
    <!-- фон: прямокутник із закругленими кутами -->
    <rect x="2" y="6" width="20" height="12" rx="3" ry="3" fill="#828282"/>
    <!-- білий трикутник play -->
    <path d="M10 15V9l5 3-5 3z" fill="#fff"/>
  </symbol>
  <!-- Instagram -->
  <symbol id="icon-instagram" viewBox="0 0 24 24">
    <rect width="24" height="24" fill="#fff"/>
    <!-- фон білий -->
    <path d="M7 2C4.24 2 2 4.24 2 7v10c0 2.76 2.24 5 5 5h10c2.76 0 5-2.24 5-5V7c0-2.76-2.24-5-5-5H7zm10 2c1.65 0 3 1.35 3 3v10c0 1.65-1.35 3-3 3H7c-1.65 0-3-1.35-3-3V7c0-1.65 1.35-3 3-3h10zm-5 3a5 5 0 100 10 5 5 0 000-10zm6.5-2.5a1.5 1.5 0 11-3 0 1.5 1.5 0 013 0z" fill="#828282"/>
  </symbol>
  <symbol id="icon-earth" width="32" height="32" viewBox="0 0 32 32" fill="none" >
  <path fill-rule="evenodd" clip-rule="evenodd" d="M16 5.63636C10.2763 5.63636 5.63636 10.2763 5.63636 16C5.63636 21.7236 10.2763 26.3636 16 26.3636C21.7237 26.3636 26.3638 21.7236 26.3638 16C26.3638 10.2763 21.7237 5.63636 16 5.63636ZM4 16C4 9.37258 9.37259 4 16 4C22.6274 4 28.0001 9.37258 28.0001 16C28.0001 22.6274 22.6274 28 16 28C9.37259 28 4 22.6274 4 16Z" fill="#454545" />
  <path fill-rule="evenodd" clip-rule="evenodd" d="M26.909 16.7273H5.09082V15.2727H26.909V16.7273Z" fill="#454545" />
  <path fill-rule="evenodd" clip-rule="evenodd" d="M15.2725 26.9088V5.09055H16.7271V26.9088H15.2725ZM21.2272 15.9996C21.2272 12.0492 19.8066 8.14107 17.0215 5.55703L17.8871 4.62402C20.9811 7.49452 22.5 11.7683 22.5 15.9996C22.5 20.231 20.9811 24.5048 17.8871 27.3753L17.0215 26.4422C19.8066 23.8582 21.2272 19.9501 21.2272 15.9996ZM9.63574 15.9997C9.63574 11.7744 11.1051 7.50288 14.1048 4.6309L14.985 5.55021C12.2876 8.13279 10.9085 12.0431 10.9085 15.9997C10.9085 19.9562 12.2876 23.8666 14.985 26.4491L14.1048 27.3684C11.1052 24.4964 9.63576 20.2249 9.63574 15.9997Z" fill="#454545" />
  <path fill-rule="evenodd" clip-rule="evenodd" d="M16.0002 9.55957C19.9444 9.55957 23.9553 10.2889 26.6741 11.8077C26.981 11.9791 27.0908 12.3668 26.9193 12.6736C26.7481 12.9804 26.3602 13.0902 26.0535 12.9188C23.5991 11.5478 19.8329 10.8323 16.0002 10.8323C12.1673 10.8323 8.40115 11.5478 5.94682 12.9188C5.63998 13.0902 5.25231 12.9804 5.08091 12.6736C4.90953 12.3668 5.01931 11.9791 5.32615 11.8077C8.04504 10.2889 12.0559 9.55957 16.0002 9.55957ZM16.0002 22.0905C19.9444 22.0905 23.9553 21.361 26.6741 19.8423C26.981 19.6709 27.0908 19.2832 26.9193 18.9764C26.7481 18.6696 26.3602 18.5598 26.0535 18.7312C23.5991 20.1022 19.8329 20.8178 16.0002 20.8178C12.1673 20.8178 8.40115 20.1022 5.94682 18.7312C5.63998 18.5598 5.25231 18.6696 5.08091 18.9764C4.90953 19.2832 5.01931 19.6709 5.32615 19.8423C8.04504 21.361 12.0559 22.0905 16.0002 22.0905Z" fill="#454545" />
  </symbol>
  <symbol id="icon-person" width="32" height="32" viewBox="0 0 32 32" fill="none" >
  <path fill-rule="evenodd" clip-rule="evenodd" d="M4 16.0001C4 9.37261 9.37259 4 16 4C22.6274 4 28 9.37261 28 16.0001C28 22.6275 22.6274 28.0001 16 28.0001C9.37259 28.0001 4 22.6275 4 16.0001ZM16 5.78885C10.3605 5.78885 5.78885 10.3606 5.78885 16.0001C5.78885 18.609 6.76728 20.9895 8.37724 22.7943C10.0756 20.4209 12.8567 18.8718 16.0007 18.8718C19.1443 18.8718 21.9251 20.4205 23.6235 22.7936C25.2331 20.9887 26.2112 18.6086 26.2112 16.0001C26.2112 10.3606 21.6394 5.78885 16 5.78885ZM22.3056 24.0322C20.9453 21.9978 18.6286 20.6607 16.0007 20.6607C13.3725 20.6607 11.0556 21.9982 9.69526 24.033C11.4313 25.3974 13.6206 26.2112 16 26.2112C18.3798 26.2112 20.5695 25.3972 22.3056 24.0322ZM11.5752 14.1265C11.5752 11.6826 13.5564 9.70142 16.0002 9.70142C18.4441 9.70142 20.4253 11.6826 20.4253 14.1265C20.4253 16.5704 18.4441 18.5515 16.0002 18.5515C13.5564 18.5515 11.5752 16.5704 11.5752 14.1265ZM16.0002 11.4903C14.5443 11.4903 13.364 12.6705 13.364 14.1265C13.364 15.5824 14.5443 16.7627 16.0002 16.7627C17.4562 16.7627 18.6364 15.5824 18.6364 14.1265C18.6364 12.6705 17.4562 11.4903 16.0002 11.4903Z" fill="#454545" />
  </symbol>
  <symbol id="icon-calendar" width="32" height="32" viewBox="0 0 32 32" fill="none">
  <path fill-rule="evenodd" clip-rule="evenodd" d="M10.4615 3C10.9713 3 11.3846 3.41328 11.3846 3.92308V4.84615H20.6154V3.92308C20.6154 3.41328 21.0287 3 21.5385 3C22.0482 3 22.4615 3.41328 22.4615 3.92308V4.84615H25.2308C26.7601 4.84615 28 6.08597 28 7.61538V24.2308C28 25.7601 26.7601 27 25.2308 27H6.76923C5.23982 27 4 25.7601 4 24.2308V7.61538C4 6.08597 5.23982 4.84615 6.76923 4.84615H9.53846V3.92308C9.53846 3.41328 9.95174 3 10.4615 3ZM20.6154 6.69231V7.61538C20.6154 8.12518 21.0287 8.53846 21.5385 8.53846C22.0482 8.53846 22.4615 8.12518 22.4615 7.61538V6.69231H25.2308C25.7405 6.69231 26.1538 7.10559 26.1538 7.61538V10.3846H5.84615V7.61538C5.84615 7.10559 6.25943 6.69231 6.76923 6.69231H9.53846V7.61538C9.53846 8.12518 9.95174 8.53846 10.4615 8.53846C10.9713 8.53846 11.3846 8.12518 11.3846 7.61538V6.69231H20.6154ZM5.84615 12.2308V24.2308C5.84615 24.7405 6.25943 25.1538 6.76923 25.1538H25.2308C25.7405 25.1538 26.1538 24.7405 26.1538 24.2308V12.2308H5.84615ZM15.0769 15C15.0769 14.4902 15.4902 14.0769 16 14.0769C16.5098 14.0769 16.9231 14.4902 16.9231 15C16.9231 15.5098 16.5098 15.9231 16 15.9231C15.4902 15.9231 15.0769 15.5098 15.0769 15ZM19.6923 14.0769C19.1825 14.0769 18.7692 14.4902 18.7692 15C18.7692 15.5098 19.1825 15.9231 19.6923 15.9231C20.2021 15.9231 20.6154 15.5098 20.6154 15C20.6154 14.4902 20.2021 14.0769 19.6923 14.0769ZM22.4615 15C22.4615 14.4902 22.8749 14.0769 23.3846 14.0769C23.8943 14.0769 24.3077 14.4902 24.3077 15C24.3077 15.5098 23.8943 15.9231 23.3846 15.9231C22.8749 15.9231 22.4615 15.5098 22.4615 15ZM23.3846 17.7692C22.8749 17.7692 22.4615 18.1825 22.4615 18.6923C22.4615 19.2021 22.8749 19.6154 23.3846 19.6154C23.8943 19.6154 24.3077 19.2021 24.3077 18.6923C24.3077 18.1825 23.8943 17.7692 23.3846 17.7692ZM18.7692 18.6923C18.7692 18.1825 19.1825 17.7692 19.6923 17.7692C20.2021 17.7692 20.6154 18.1825 20.6154 18.6923C20.6154 19.2021 20.2021 19.6154 19.6923 19.6154C19.1825 19.6154 18.7692 19.2021 18.7692 18.6923ZM16 17.7692C15.4902 17.7692 15.0769 18.1825 15.0769 18.6923C15.0769 19.2021 15.4902 19.6154 16 19.6154C16.5098 19.6154 16.9231 19.2021 16.9231 18.6923C16.9231 18.1825 16.5098 17.7692 16 17.7692ZM11.3846 18.6923C11.3846 18.1825 11.7979 17.7692 12.3077 17.7692C12.8175 17.7692 13.2308 18.1825 13.2308 18.6923C13.2308 19.2021 12.8175 19.6154 12.3077 19.6154C11.7979 19.6154 11.3846 19.2021 11.3846 18.6923ZM8.61538 17.7692C8.10559 17.7692 7.69231 18.1825 7.69231 18.6923C7.69231 19.2021 8.10559 19.6154 8.61538 19.6154C9.12518 19.6154 9.53846 19.2021 9.53846 18.6923C9.53846 18.1825 9.12518 17.7692 8.61538 17.7692ZM7.69231 22.3846C7.69231 21.8749 8.10559 21.4615 8.61538 21.4615C9.12518 21.4615 9.53846 21.8749 9.53846 22.3846C9.53846 22.8943 9.12518 23.3077 8.61538 23.3077C8.10559 23.3077 7.69231 22.8943 7.69231 22.3846ZM12.3077 21.4615C11.7979 21.4615 11.3846 21.8749 11.3846 22.3846C11.3846 22.8943 11.7979 23.3077 12.3077 23.3077C12.8175 23.3077 13.2308 22.8943 13.2308 22.3846C13.2308 21.8749 12.8175 21.4615 12.3077 21.4615ZM15.0769 22.3846C15.0769 21.8749 15.4902 21.4615 16 21.4615C16.5098 21.4615 16.9231 21.8749 16.9231 22.3846C16.9231 22.8943 16.5098 23.3077 16 23.3077C15.4902 23.3077 15.0769 22.8943 15.0769 22.3846ZM19.6923 21.4615C19.1825 21.4615 18.7692 21.8749 18.7692 22.3846C18.7692 22.8943 19.1825 23.3077 19.6923 23.3077C20.2021 23.3077 20.6154 22.8943 20.6154 22.3846C20.6154 21.8749 20.2021 21.4615 19.6923 21.4615Z" fill="#454545"/>
  </symbol>
  <symbol id="icon-door-lock" width="24" height="29" viewBox="0 0 24 29" fill="none">
  <path fill-rule="evenodd" clip-rule="evenodd" d="M6.54545 7.98046C6.54545 6.06984 7.07387 4.64094 7.94887 3.69877C8.81311 2.76818 10.1363 2.18181 12.0031 2.18181C13.8708 2.18181 15.1921 2.76702 16.0543 3.69552C16.9274 4.63568 17.4545 6.06279 17.4545 7.97444V10.9564H6.54545V7.98046ZM4.36364 10.9564V7.98046C4.36364 5.67966 5.00376 3.66379 6.35016 2.21404C7.70732 0.752701 9.65836 0 12.0031 0C14.3473 0 16.2971 0.750607 17.6531 2.21088C18.9984 3.6595 19.6364 5.67417 19.6364 7.97444V10.9564H21.8182C23.0232 10.9564 24 11.9333 24 13.1382V26.2292C24 27.4342 23.0232 28.411 21.8182 28.411H2.18182C0.976844 28.411 0 27.4342 0 26.2292V13.1382C0 11.9333 0.976844 10.9564 2.18182 10.9564H4.36364ZM2.18182 13.1382H21.8182V26.2292H2.18182V13.1382Z" fill="#454545"/>
  </symbol>
</svg>